<mxfile host="Electron" agent="Mozilla/5.0 (Windows NT 10.0; Win64; x64) AppleWebKit/537.36 (KHTML, like Gecko) draw.io/24.7.8 Chrome/128.0.6613.36 Electron/32.0.1 Safari/537.36" version="24.7.8">
  <diagram name="Page-1" id="lVyKhR1P6s7jJM2A0rLg">
    <mxGraphModel dx="915" dy="823" grid="1" gridSize="10" guides="1" tooltips="1" connect="1" arrows="1" fold="1" page="1" pageScale="1" pageWidth="850" pageHeight="1100" math="0" shadow="0">
      <root>
        <mxCell id="0" />
        <mxCell id="1" parent="0" />
        <mxCell id="DWqzUVBohQPq3SnWK1FW-2" value="&lt;b&gt;iterator&lt;/b&gt;" style="ellipse;whiteSpace=wrap;html=1;fontSize=15;" vertex="1" parent="1">
          <mxGeometry x="330" y="270" width="90" height="60" as="geometry" />
        </mxCell>
        <mxCell id="DWqzUVBohQPq3SnWK1FW-3" value="" style="endArrow=classic;html=1;rounded=0;exitX=1;exitY=0;exitDx=0;exitDy=0;" edge="1" parent="1" source="DWqzUVBohQPq3SnWK1FW-2">
          <mxGeometry width="50" height="50" relative="1" as="geometry">
            <mxPoint x="410" y="300" as="sourcePoint" />
            <mxPoint x="460" y="250" as="targetPoint" />
          </mxGeometry>
        </mxCell>
        <mxCell id="DWqzUVBohQPq3SnWK1FW-9" value="&lt;div style=&quot;text-align: center;&quot;&gt;&lt;b&gt;Inserter_itertor&lt;/b&gt;&lt;/div&gt;back_inserter and back_inserter_iterator&lt;div&gt;inserter and inserter_iterator&lt;/div&gt;&lt;div&gt;front_inserter and front_inserter_iterator&lt;/div&gt;" style="rounded=1;whiteSpace=wrap;html=1;align=left;" vertex="1" parent="1">
          <mxGeometry x="460" y="220" width="230" height="60" as="geometry" />
        </mxCell>
        <mxCell id="DWqzUVBohQPq3SnWK1FW-10" value="&lt;div style=&quot;text-align: center;&quot;&gt;&lt;b style=&quot;background-color: initial;&quot;&gt;const iterator&lt;/b&gt;&lt;/div&gt;&lt;div&gt;Use cbegin() and cend()&lt;/div&gt;&lt;div&gt;most algorithm use const iterator&lt;/div&gt;&lt;div&gt;const iterator and iterator cast&lt;/div&gt;" style="rounded=1;whiteSpace=wrap;html=1;align=left;" vertex="1" parent="1">
          <mxGeometry x="470" y="310" width="210" height="60" as="geometry" />
        </mxCell>
        <mxCell id="DWqzUVBohQPq3SnWK1FW-11" value="&lt;div style=&quot;text-align: center;&quot;&gt;&lt;b&gt;iostream_iterator&lt;/b&gt;&lt;/div&gt;&lt;div&gt;ostream_iterator&amp;lt;int&amp;gt; oi{cout, &quot; &quot;}&lt;/div&gt;&lt;div&gt;istream_iterator&amp;lt;int&amp;gt; ii{}&lt;/div&gt;" style="rounded=1;whiteSpace=wrap;html=1;align=left;" vertex="1" parent="1">
          <mxGeometry x="90" y="320" width="210" height="60" as="geometry" />
        </mxCell>
        <mxCell id="DWqzUVBohQPq3SnWK1FW-12" value="&lt;div style=&quot;text-align: center;&quot;&gt;&lt;b&gt;&amp;nbsp; &amp;nbsp; &amp;nbsp; &amp;nbsp; &amp;nbsp; &amp;nbsp; &amp;nbsp; &amp;nbsp; &amp;nbsp;reverse_iterator&lt;/b&gt;&lt;/div&gt;&lt;div&gt;rbegin() and rend()&lt;/div&gt;&lt;div&gt;ri.base()&lt;/div&gt;" style="rounded=1;whiteSpace=wrap;html=1;align=left;" vertex="1" parent="1">
          <mxGeometry x="90" y="220" width="190" height="60" as="geometry" />
        </mxCell>
        <mxCell id="DWqzUVBohQPq3SnWK1FW-13" value="" style="endArrow=classic;html=1;rounded=0;entryX=0;entryY=0.5;entryDx=0;entryDy=0;" edge="1" parent="1" source="DWqzUVBohQPq3SnWK1FW-2" target="DWqzUVBohQPq3SnWK1FW-10">
          <mxGeometry width="50" height="50" relative="1" as="geometry">
            <mxPoint x="417" y="289" as="sourcePoint" />
            <mxPoint x="470" y="260" as="targetPoint" />
          </mxGeometry>
        </mxCell>
        <mxCell id="DWqzUVBohQPq3SnWK1FW-14" value="" style="endArrow=classic;html=1;rounded=0;entryX=0.996;entryY=0.617;entryDx=0;entryDy=0;exitX=0;exitY=1;exitDx=0;exitDy=0;entryPerimeter=0;" edge="1" parent="1" source="DWqzUVBohQPq3SnWK1FW-2" target="DWqzUVBohQPq3SnWK1FW-11">
          <mxGeometry width="50" height="50" relative="1" as="geometry">
            <mxPoint x="423" y="326" as="sourcePoint" />
            <mxPoint x="480" y="350" as="targetPoint" />
          </mxGeometry>
        </mxCell>
        <mxCell id="DWqzUVBohQPq3SnWK1FW-15" value="" style="endArrow=classic;html=1;rounded=0;entryX=0.996;entryY=0.394;entryDx=0;entryDy=0;exitX=0;exitY=0;exitDx=0;exitDy=0;entryPerimeter=0;" edge="1" parent="1" source="DWqzUVBohQPq3SnWK1FW-2" target="DWqzUVBohQPq3SnWK1FW-12">
          <mxGeometry width="50" height="50" relative="1" as="geometry">
            <mxPoint x="353" y="331" as="sourcePoint" />
            <mxPoint x="309" y="367" as="targetPoint" />
          </mxGeometry>
        </mxCell>
      </root>
    </mxGraphModel>
  </diagram>
</mxfile>
